<?xml version="1.0" standalone="no"?>
<!DOCTYPE svg PUBLIC "-//W3C//DTD SVG 20010904//EN"
 "http://www.w3.org/TR/2001/REC-SVG-20010904/DTD/svg10.dtd">
<svg version="1.0" xmlns="http://www.w3.org/2000/svg"
 width="500.000000pt" height="500.000000pt" viewBox="0 0 500.000000 500.000000"
 preserveAspectRatio="xMidYMid meet">

<g transform="translate(0.000000,500.000000) scale(0.100000,-0.100000)"
fill="#000000" stroke="none">
<path d="M2320 4909 c-163 -12 -263 -28 -426 -69 -685 -172 -1261 -642 -1574
-1285 -139 -286 -214 -570 -240 -910 -31 -395 68 -865 261 -1242 371 -724
1093 -1221 1898 -1304 142 -15 513 -6 631 15 260 45 478 114 685 216 687 338
1160 957 1309 1710 155 784 -91 1595 -654 2161 -203 203 -393 341 -644 464
-297 146 -578 220 -926 245 -159 11 -167 11 -320 -1z m411 -20 c435 -44 850
-206 1209 -473 118 -88 318 -282 415 -401 248 -307 421 -680 494 -1065 60
-323 52 -691 -24 -1008 -45 -189 -150 -457 -242 -617 -252 -439 -600 -767
-1048 -985 -214 -105 -438 -175 -690 -216 -153 -26 -533 -26 -690 -1 -508 80
-951 296 -1311 639 -382 365 -623 824 -716 1364 -30 176 -33 560 -5 729 74
441 246 831 512 1160 152 188 387 395 595 525 303 189 718 327 1060 353 107 8
346 6 441 -4z"/>
<path d="M2580 4751 c0 -26 -3 -83 -7 -128 -5 -72 -4 -83 11 -89 10 -4 21 -3
26 2 4 5 11 65 14 135 l7 125 -25 0 c-24 0 -26 -3 -26 -45z"/>
<path d="M2780 4799 c-1 -2 -11 -61 -24 -130 -12 -69 -20 -131 -18 -137 2 -7
12 -12 21 -12 15 0 20 15 30 90 7 50 16 90 21 90 10 0 71 -67 140 -152 29 -38
56 -68 59 -68 6 0 72 217 71 236 0 12 -30 28 -37 20 -3 -3 -15 -43 -26 -90
l-22 -85 -74 89 c-72 86 -141 159 -141 149z"/>
<path d="M2240 4775 c0 -5 7 -61 14 -124 15 -118 25 -143 49 -123 10 8 11 26
6 69 -4 32 -8 82 -8 112 l-1 54 42 -7 c51 -8 58 -13 58 -35 0 -20 -30 -51 -48
-51 -22 0 -12 -16 52 -79 60 -60 64 -62 81 -45 15 15 15 19 3 28 -8 6 -32 26
-53 44 l-37 33 26 28 c64 66 13 115 -115 109 -39 -1 -69 -7 -69 -13z"/>
<path d="M2028 4752 c-51 -12 -68 -21 -68 -33 0 -19 50 -232 55 -238 7 -7 145
21 151 31 12 20 -12 27 -59 16 -27 -5 -51 -8 -53 -5 -3 2 -7 21 -11 40 -5 36
-5 36 37 43 37 6 61 26 48 40 -3 2 -25 0 -49 -5 -51 -12 -56 -8 -61 38 -3 34
-2 35 47 45 34 8 51 17 53 29 4 20 0 20 -90 -1z"/>
<path d="M1728 4662 c-106 -36 -138 -51 -138 -64 0 -23 8 -22 70 2 28 11 54
20 58 20 4 0 20 -37 36 -82 16 -46 33 -93 37 -106 7 -19 12 -21 29 -12 26 14
25 21 -10 110 -42 106 -40 114 19 129 49 12 77 32 64 44 -10 11 -20 8 -165
-41z"/>
<path d="M3269 4627 c-178 -135 -201 -159 -163 -174 9 -3 28 6 47 25 31 30 35
31 72 21 99 -27 114 -38 120 -83 4 -24 10 -49 15 -56 11 -17 40 -5 40 17 0 28
-59 276 -68 285 -4 4 -32 -12 -63 -35z m50 -73 c7 -26 10 -48 8 -50 -2 -2 -28
4 -57 14 l-53 18 39 32 c21 18 41 32 45 32 4 0 12 -21 18 -46z"/>
<path d="M1448 4551 l-67 -37 15 -30 c34 -65 98 -180 106 -191 6 -8 28 -2 78
23 39 18 70 38 70 43 0 22 -22 20 -68 -3 l-49 -25 -16 35 c-21 44 -22 39 13
54 35 15 54 35 45 49 -4 7 -20 4 -45 -9 -22 -11 -43 -20 -48 -20 -12 0 -37 73
-26 77 28 10 87 50 86 58 -2 20 -28 13 -94 -24z"/>
<path d="M3515 4431 c-49 -99 -53 -111 -39 -125 8 -9 17 -16 19 -16 2 0 27 44
56 98 29 53 53 99 55 101 6 7 72 -40 78 -56 10 -24 -16 -45 -58 -46 -20 -1
-36 -3 -36 -5 0 -2 6 -30 14 -61 8 -31 17 -68 20 -83 4 -19 13 -28 26 -28 22
0 26 23 11 62 -22 60 -22 78 -2 78 58 0 94 46 71 90 -12 23 -125 100 -146 100
-8 0 -39 -49 -69 -109z"/>
<path d="M1293 4460 c-22 -9 -23 -14 -23 -129 l0 -119 -112 45 c-106 42 -113
44 -125 27 -18 -24 -4 -37 67 -59 30 -10 88 -31 129 -47 40 -16 75 -27 76 -26
4 5 17 318 14 317 -2 0 -14 -4 -26 -9z"/>
<path d="M2305 4460 c-299 -35 -581 -129 -831 -280 -103 -63 -225 -152 -284
-210 l-45 -43 -170 57 c-93 31 -175 56 -181 56 -18 0 -24 -26 -14 -60 12 -41
88 -147 139 -193 23 -20 41 -39 41 -42 0 -3 -24 -37 -54 -76 -245 -322 -386
-749 -386 -1171 0 -1002 724 -1831 1722 -1973 136 -19 389 -19 529 1 809 112
1460 694 1660 1481 48 190 62 323 56 538 -6 211 -21 317 -73 500 -62 217 -179
452 -310 624 -30 39 -54 73 -54 76 0 2 21 24 46 47 54 50 144 183 144 214 0
12 -8 25 -17 28 -10 4 -91 -17 -191 -51 -156 -52 -174 -56 -183 -41 -5 9 -44
45 -87 79 -272 220 -581 359 -930 420 -135 23 -403 33 -527 19z m520 -123
c215 -41 369 -93 555 -188 176 -90 385 -239 364 -259 -9 -8 -171 -57 -358
-110 -107 -29 -176 -38 -176 -22 0 5 32 40 70 79 108 108 93 121 -52 44 -87
-45 -169 -82 -359 -160 -42 -18 -95 -48 -118 -67 l-41 -36 6 -82 c5 -67 3 -89
-11 -119 -23 -50 -88 -107 -122 -107 l-26 0 6 156 c7 150 8 157 32 182 77 77
-50 169 -160 117 -45 -22 -60 -57 -40 -95 8 -16 21 -33 29 -37 10 -6 14 -46
17 -168 l4 -160 -24 3 c-37 4 -88 48 -112 95 -19 35 -21 53 -16 124 4 70 2 87
-13 106 -24 30 -104 72 -250 132 -63 26 -171 74 -239 106 -68 33 -126 58 -127
56 -8 -8 49 -75 90 -107 80 -62 71 -91 -21 -71 -200 44 -526 151 -460 151 9 0
45 23 79 50 254 205 586 348 918 396 121 17 443 12 555 -9z m1137 -649 c70
-57 254 -395 322 -594 136 -397 137 -816 5 -1208 -194 -572 -628 -1008 -1185
-1190 -648 -212 -1358 -56 -1855 406 -193 180 -417 524 -508 781 -43 122 -80
310 -93 470 -19 232 12 482 88 717 38 114 141 337 166 358 14 11 23 5 66 -36
73 -71 140 -102 220 -102 94 0 265 48 481 134 63 25 79 27 67 7 -12 -20 -166
-130 -225 -162 -48 -25 -61 -37 -61 -55 0 -47 108 -71 191 -42 44 15 149 78
217 130 29 23 55 38 58 35 9 -8 -15 -47 -63 -103 -47 -56 -49 -79 -5 -87 40
-8 93 15 150 62 59 50 84 47 52 -5 -36 -57 -9 -66 57 -18 47 35 63 32 43 -7
-20 -37 21 -21 97 37 25 19 56 34 71 34 73 0 136 -86 130 -178 l-3 -47 -57 -3
c-42 -2 -67 2 -97 18 -32 16 -59 20 -129 20 -104 0 -132 -8 -229 -68 -65 -39
-73 -47 -73 -74 0 -22 10 -40 35 -64 41 -38 74 -45 231 -47 101 -2 111 0 141
22 32 24 153 48 174 35 5 -3 9 -104 9 -226 l0 -221 -42 7 c-53 9 -62 16 -77
68 -7 24 -26 87 -42 140 l-30 97 -105 3 c-91 3 -104 1 -104 -13 0 -9 18 -75
40 -147 22 -71 40 -132 40 -135 0 -3 -25 -11 -55 -17 -105 -22 -230 -128 -255
-218 -39 -142 26 -312 144 -375 58 -30 197 -30 276 1 30 12 57 18 61 14 8 -8
59 -181 59 -198 0 -7 -19 -22 -42 -34 -56 -28 -124 -95 -150 -145 -11 -22 -23
-68 -26 -102 -13 -162 87 -280 253 -301 l60 -7 -1 -45 c-1 -25 -5 -62 -9 -82
-5 -27 0 -69 20 -153 15 -63 31 -115 36 -115 14 0 25 31 49 138 20 90 22 110
12 148 -7 24 -12 60 -12 79 0 33 3 37 55 60 85 37 111 60 184 159 91 123 146
176 230 220 39 20 71 41 71 46 0 14 -140 -29 -205 -63 -39 -20 -92 -63 -150
-123 -86 -87 -136 -124 -170 -124 -24 0 -19 101 11 205 15 50 28 91 29 93 2 2
47 12 101 23 174 36 291 105 339 200 87 171 0 365 -190 425 l-52 17 11 39 c8
29 17 40 36 45 14 3 57 20 96 39 86 40 143 99 187 192 29 61 32 75 32 167 0
93 -2 105 -32 166 -56 114 -178 207 -312 239 -37 9 -87 11 -158 6 l-103 -7 0
41 c0 48 17 84 57 122 51 48 79 47 163 -11 74 -50 96 -55 87 -20 -6 24 -2 24
32 0 35 -25 77 -36 86 -22 3 6 -3 27 -15 46 -24 39 -14 47 16 13 10 -11 39
-34 63 -50 57 -36 134 -40 151 -7 10 17 4 29 -44 85 -31 36 -56 70 -56 75 0
12 6 9 87 -53 100 -75 177 -110 253 -115 53 -4 71 -1 98 17 26 16 33 26 30 47
-2 21 -19 35 -84 72 -154 88 -275 187 -176 145 232 -100 376 -145 489 -151 75
-5 88 -3 137 21 66 32 156 111 156 136 0 26 -63 46 -205 65 -272 35 -408 55
-413 59 -19 20 23 36 185 69 99 20 197 43 219 50 51 19 67 20 86 5z m-2818 -8
c14 -5 96 -23 183 -40 178 -35 223 -47 223 -61 0 -18 -45 -28 -235 -54 -104
-14 -232 -33 -283 -41 -52 -9 -96 -13 -100 -10 -6 7 56 100 116 174 35 43 52
49 96 32z m936 -740 c0 -12 -28 -25 -36 -17 -9 9 6 27 22 27 8 0 14 -5 14 -10z
m775 -98 c75 -35 118 -70 141 -114 19 -37 18 -142 -2 -184 -16 -33 -86 -104
-103 -104 -4 0 11 64 35 142 24 79 44 146 44 150 0 5 -51 8 -114 8 l-114 0
-11 -32 c-5 -18 -26 -89 -46 -158 -20 -69 -38 -131 -41 -138 -2 -9 -17 -12
-41 -10 l-38 3 0 68 c0 37 2 144 3 238 l2 171 108 -4 c96 -3 114 -7 177 -36z
m-596 -259 c16 -54 66 -222 111 -373 45 -151 92 -308 104 -348 12 -40 25 -74
30 -75 4 -1 53 149 108 333 55 184 115 386 134 448 l35 112 55 0 c44 0 54 -3
54 -17 0 -9 -64 -228 -141 -487 -78 -259 -165 -549 -193 -643 l-52 -173 -67
228 c-38 125 -126 418 -196 652 -71 234 -126 428 -124 433 2 4 28 7 58 7 l54
0 30 -97z m-47 -433 c20 -69 35 -127 32 -131 -6 -10 -82 -23 -117 -20 -38 2
-82 25 -101 53 -22 31 -20 106 3 144 19 31 115 88 136 81 5 -2 26 -59 47 -127z
m234 106 c3 -8 4 -31 2 -52 -4 -38 -4 -38 -14 -14 -22 51 -25 80 -9 80 9 0 18
-6 21 -14z m138 -43 c-13 -53 -23 -60 -24 -15 0 31 4 42 15 42 12 0 14 -7 9
-27z m236 -233 c69 -35 88 -105 51 -187 -12 -25 -34 -51 -58 -66 -42 -27 -141
-62 -150 -53 -11 10 90 326 104 326 8 0 32 -9 53 -20z m-386 -582 c18 -76 28
-198 16 -198 -28 0 -80 37 -99 70 -25 44 -27 90 -6 130 14 27 51 60 66 60 4 0
14 -28 23 -62z"/>
<path d="M3457 2823 c-4 -3 -7 -30 -7 -59 0 -51 -1 -53 -33 -63 -19 -7 -47
-25 -62 -41 -16 -17 -35 -30 -42 -30 -8 0 -13 -12 -13 -31 0 -23 11 -42 44
-76 41 -41 44 -48 38 -81 -4 -21 -7 -77 -7 -127 0 -88 1 -92 40 -154 l40 -64
0 -161 0 -161 -28 -3 c-36 -4 -41 -19 -22 -65 18 -43 53 -57 93 -36 15 7 30
15 35 17 4 2 7 -3 7 -12 0 -8 6 -18 13 -23 6 -4 98 -10 202 -13 l190 -5 3 -24
c5 -33 -40 -76 -96 -92 -52 -15 -142 -16 -244 -2 -55 8 -68 7 -68 -4 0 -39
171 -90 269 -80 102 11 171 52 202 121 24 52 23 86 -1 163 -16 53 -18 71 -9
125 6 35 11 111 11 170 0 106 0 110 -39 191 -53 111 -91 151 -179 193 -89 42
-134 95 -134 159 0 54 -37 124 -80 153 -19 12 -40 37 -48 55 -22 54 -55 80
-75 60z m143 -1062 c14 -27 14 -28 -20 -33 -16 -3 -30 -3 -30 -2 0 11 25 54
31 54 5 0 13 -9 19 -19z"/>
<path d="M1721 2802 c-26 -13 -35 -14 -38 -4 -8 23 -38 12 -88 -33 -27 -25
-64 -58 -81 -73 -19 -17 -41 -54 -59 -102 -16 -41 -46 -102 -68 -135 -21 -33
-57 -98 -80 -145 -22 -47 -55 -102 -72 -122 -18 -21 -56 -81 -85 -135 -53 -95
-54 -98 -52 -172 1 -42 -2 -82 -6 -89 -5 -7 -32 -15 -60 -19 -28 -3 -75 -18
-104 -32 -42 -21 -54 -32 -56 -53 -5 -43 48 -53 268 -53 171 0 189 2 235 23
27 13 59 31 70 41 11 10 38 22 60 26 61 11 115 42 115 66 0 19 -5 20 -37 16
-21 -3 -49 -8 -62 -12 -21 -7 -23 -6 -17 10 4 11 10 40 13 65 5 42 26 80 44
80 5 0 15 -13 24 -29 8 -17 53 -69 100 -118 46 -48 87 -96 91 -105 8 -26 50
-33 79 -14 37 24 32 52 -11 66 -31 11 -33 13 -18 25 24 17 11 45 -20 45 -32 0
-49 25 -87 127 -35 93 -36 116 -7 185 17 42 21 69 18 133 -8 213 -4 227 70
239 43 7 80 44 80 80 0 17 -10 25 -45 35 -37 11 -46 19 -55 47 -6 19 -21 41
-33 49 -21 15 -21 15 -2 52 11 21 21 41 23 46 6 11 -9 8 -47 -11z"/>
<path d="M3815 4373 c44 -108 42 -152 -6 -208 -25 -28 -28 -37 -19 -55 6 -11
14 -20 17 -20 4 0 26 21 49 48 l42 47 91 -1 c81 -1 91 1 91 17 0 21 -65 34
-139 27 l-49 -5 -5 52 c-7 68 -31 115 -58 115 -16 0 -19 -4 -14 -17z"/>
<path d="M446 3574 c-3 -9 -6 -20 -6 -25 0 -7 210 -119 224 -119 5 0 76 125
76 134 0 3 -8 6 -18 6 -12 0 -25 -14 -37 -40 -10 -22 -23 -40 -28 -40 -6 0
-52 23 -104 50 -51 28 -95 50 -97 50 -2 0 -7 -7 -10 -16z"/>
<path d="M4393 3528 c-51 -25 -55 -113 -9 -213 21 -47 29 -55 40 -46 12 10 11
18 -7 54 -47 97 -30 167 40 167 46 0 84 -21 126 -71 33 -38 57 -45 57 -16 0
21 -92 105 -132 122 -43 17 -83 18 -115 3z"/>
<path d="M390 3398 c-68 -46 -100 -167 -63 -238 22 -43 76 -80 116 -80 70 0
136 81 144 179 5 57 -19 107 -66 138 -43 29 -89 29 -131 1z m105 -43 c30 -15
45 -35 58 -76 10 -31 -15 -99 -45 -124 -58 -49 -136 -22 -159 54 -15 50 1 101
42 136 35 29 58 31 104 10z"/>
<path d="M4553 3238 c-75 -29 -103 -45 -103 -57 0 -23 30 -113 42 -126 18 -20
26 17 12 58 -8 21 -12 43 -9 47 3 5 48 23 100 40 52 17 97 35 100 40 9 14 -6
40 -24 39 -9 0 -62 -18 -118 -41z"/>
<path d="M4638 3006 c-107 -28 -118 -33 -118 -53 0 -13 3 -23 8 -23 4 0 60 12
125 27 107 24 117 29 117 49 0 13 -3 24 -7 26 -5 2 -61 -10 -125 -26z"/>
<path d="M244 3015 c-9 -23 12 -42 57 -49 l41 -7 -6 -42 c-3 -23 -9 -66 -12
-95 l-7 -53 -46 7 c-25 3 -50 7 -56 8 -5 0 -10 -10 -10 -24 0 -24 3 -25 95
-37 150 -18 160 -17 160 12 0 23 -4 25 -42 25 -69 0 -71 5 -58 101 6 46 13 86
15 88 2 2 26 -2 54 -9 55 -13 71 -9 71 21 0 13 -7 19 -22 19 -13 0 -66 11
-118 25 -113 29 -109 29 -116 10z"/>
<path d="M4670 2835 c-58 -7 -108 -11 -112 -8 -5 2 -8 -8 -8 -23 l0 -27 65 7
c36 4 80 9 97 13 l31 6 -17 -29 c-10 -16 -49 -71 -86 -122 -38 -50 -65 -94
-60 -97 5 -3 64 -9 130 -12 l120 -6 0 28 0 27 -90 -4 c-49 -2 -90 -3 -90 -1 0
1 33 51 74 110 40 60 79 118 85 131 14 26 19 26 -139 7z"/>
<path d="M239 2615 c-74 -41 -77 -194 -5 -272 27 -29 41 -36 83 -40 45 -5 53
-2 86 26 73 65 70 198 -7 270 -32 30 -117 39 -157 16z m131 -52 c36 -21 50
-52 50 -109 0 -37 -6 -51 -29 -75 -42 -41 -102 -41 -141 1 -49 53 -48 150 3
185 28 20 82 19 117 -2z"/>
<path d="M4572 2408 c3 -22 9 -23 118 -30 63 -4 121 -5 128 -3 6 2 12 16 12
30 l0 25 -131 0 c-130 0 -130 0 -127 -22z"/>
<path d="M4625 2280 c-48 -20 -87 -87 -100 -172 -6 -40 -5 -48 8 -48 9 0 18 8
20 18 3 9 10 38 17 65 8 30 23 56 42 72 33 28 37 29 72 15 38 -14 59 -55 65
-128 5 -55 9 -67 25 -70 17 -4 18 1 14 66 -6 84 -31 139 -77 169 -36 24 -53
27 -86 13z"/>
<path d="M338 2209 c-9 -27 -12 -28 -27 -16 -26 23 -48 27 -68 12 -15 -11 -18
-26 -16 -91 1 -42 6 -81 10 -85 5 -5 61 2 128 16 66 14 121 25 123 25 9 0 -2
62 -17 95 -25 57 -47 75 -87 75 -30 0 -37 -4 -46 -31z m108 -60 c8 -17 14 -33
11 -35 -2 -2 -25 -7 -50 -10 l-47 -7 0 41 c0 70 52 76 86 11z m-119 -30 c15
-29 3 -39 -44 -39 -31 0 -33 2 -33 33 0 44 17 61 44 43 12 -7 26 -24 33 -37z"/>
<path d="M505 1720 c3 -5 8 -10 11 -10 2 0 4 5 4 10 0 6 -5 10 -11 10 -5 0 -7
-4 -4 -10z"/>
<path d="M4473 1715 c-3 -9 -3 -19 1 -22 3 -4 6 1 6 11 0 9 5 14 10 11 6 -3
10 -1 10 4 0 17 -20 13 -27 -4z"/>
<path d="M487 1618 c-16 -41 -17 -41 -59 -34 l-42 7 30 -22 c16 -12 32 -25 37
-29 4 -3 1 -25 -8 -49 -15 -45 -15 -45 38 -9 27 19 27 19 58 -2 37 -27 42 -23
28 20 -11 30 -10 34 12 51 32 24 51 24 22 0 -13 -11 -23 -27 -22 -38 0 -16 1
-15 9 3 4 12 21 31 37 43 17 13 21 18 9 14 -13 -4 -17 -3 -13 4 5 8 -8 11 -40
10 -44 -2 -47 -1 -55 30 -12 47 -23 47 -41 1z"/>
<path d="M4467 1619 c-16 -42 -17 -42 -59 -35 -46 6 -46 5 15 -38 16 -12 16
-16 2 -55 -15 -44 -14 -45 37 -8 26 19 26 19 58 -3 37 -26 44 -23 30 14 -14
39 -14 40 26 69 l37 25 -49 -1 c-47 -2 -48 -2 -57 36 -5 20 -12 37 -16 37 -5
0 -15 -19 -24 -41z"/>
<path d="M540 1631 c0 -6 4 -13 10 -16 6 -3 7 1 4 9 -7 18 -14 21 -14 7z"/>
<path d="M4520 1631 c0 -6 4 -13 10 -16 6 -3 7 1 4 9 -7 18 -14 21 -14 7z"/>
<path d="M321 1607 c2 -1 12 -9 22 -16 15 -12 17 -12 11 3 -3 9 -13 16 -22 16
-8 0 -13 -1 -11 -3z"/>
<path d="M666 1594 c-6 -15 -4 -15 11 -3 10 7 20 15 22 16 2 2 -3 3 -11 3 -9
0 -19 -7 -22 -16z"/>
<path d="M4301 1607 c2 -1 12 -9 22 -16 15 -12 17 -12 11 3 -3 9 -13 16 -22
16 -8 0 -13 -1 -11 -3z"/>
<path d="M4630 1583 l-25 -26 35 23 c46 31 45 30 29 29 -8 0 -25 -12 -39 -26z"/>
<path d="M370 1576 c0 -2 8 -10 18 -17 15 -13 16 -12 3 4 -13 16 -21 21 -21
13z"/>
<path d="M4350 1576 c0 -2 8 -10 18 -17 15 -13 16 -12 3 4 -13 16 -21 21 -21
13z"/>
<path d="M421 1533 c7 -12 15 -20 18 -17 3 2 -3 12 -13 22 -17 16 -18 16 -5
-5z"/>
<path d="M4401 1533 c7 -12 15 -20 18 -17 3 2 -3 12 -13 22 -17 16 -18 16 -5
-5z"/>
<path d="M479 1459 l-24 -20 27 16 c15 9 33 13 39 9 8 -4 9 -3 5 4 -10 17 -20
15 -47 -9z"/>
<path d="M4480 1476 c0 -2 7 -7 16 -10 8 -3 12 -2 9 4 -6 10 -25 14 -25 6z"/>
<path d="M4449 1453 c-13 -16 -12 -17 4 -4 9 7 17 15 17 17 0 8 -8 3 -21 -13z"/>
<path d="M4527 1450 c17 -22 73 -53 73 -41 0 6 -5 11 -11 11 -6 0 -25 10 -42
22 -18 12 -27 16 -20 8z"/>
<path d="M395 1410 c-3 -5 -2 -10 4 -10 5 0 13 5 16 10 3 6 2 10 -4 10 -5 0
-13 -4 -16 -10z"/>
<path d="M605 1410 c3 -5 8 -10 11 -10 2 0 4 5 4 10 0 6 -5 10 -11 10 -5 0 -7
-4 -4 -10z"/>
<path d="M4375 1409 c-11 -17 1 -21 15 -4 8 9 8 15 2 15 -6 0 -14 -5 -17 -11z"/>
<path d="M4130 1139 c-6 -23 -8 -59 -5 -80 7 -38 6 -39 -22 -34 -39 8 -119 -9
-115 -23 1 -7 -2 -12 -8 -12 -5 0 -35 -22 -65 -50 -30 -27 -73 -61 -95 -76
-22 -15 -40 -33 -40 -40 0 -21 13 -17 56 17 l39 31 35 -43 c19 -24 47 -57 63
-74 26 -29 28 -29 42 -11 13 17 9 24 -45 85 l-59 66 44 45 c44 44 46 45 109
45 60 0 67 -2 100 -34 30 -29 38 -32 51 -21 21 18 20 23 -21 64 l-37 37 5 74
c4 58 2 75 -8 75 -7 0 -18 -19 -24 -41z"/>
<path d="M870 1145 c0 -3 17 -23 37 -46 l37 -41 -66 -64 c-65 -61 -67 -63 -50
-84 17 -21 18 -21 75 44 32 36 64 66 71 66 7 0 27 -16 46 -35 29 -30 35 -33
43 -19 7 12 3 20 -15 31 -12 9 -52 47 -88 85 -55 58 -90 82 -90 63z"/>
<path d="M1171 881 c-8 -5 -63 -22 -123 -37 -65 -17 -108 -33 -108 -40 0 -21
18 -25 60 -14 38 10 42 9 95 -31 52 -39 55 -44 55 -84 0 -46 20 -75 36 -53 5
7 7 70 4 140 -4 106 -7 126 -19 119z m-25 -118 c-6 -6 -66 35 -66 46 0 5 15
12 33 18 31 9 32 8 35 -25 2 -19 1 -36 -2 -39z"/>
<path d="M3718 792 c-10 -2 -18 -7 -18 -11 0 -18 113 -181 125 -181 31 0 21
34 -33 112 -41 60 -62 83 -74 80z"/>
<path d="M3583 702 c-112 -96 -111 -222 0 -222 49 0 142 42 158 71 13 25 1 24
-52 -5 -93 -52 -149 -41 -149 29 0 25 11 45 46 84 53 58 50 90 -3 43z"/>
<path d="M1313 689 c-71 -20 -76 -100 -10 -155 39 -33 129 -76 139 -66 4 4 14
24 23 45 14 35 14 38 -1 44 -16 6 -24 -1 -49 -42 -9 -14 -15 -13 -56 13 -60
38 -78 83 -47 114 19 19 28 20 104 15 67 -5 84 -3 84 8 0 8 -20 18 -50 24 -60
13 -93 13 -137 0z"/>
<path d="M1569 521 c-23 -50 -42 -94 -43 -98 -2 -16 70 -43 115 -43 51 0 69
13 69 50 0 14 -5 31 -12 38 -9 9 -9 12 0 12 6 0 19 11 28 25 16 24 16 27 -2
46 -19 22 -85 59 -103 59 -6 0 -29 -40 -52 -89z m112 29 c24 -20 24 -20 5 -35
-23 -17 -35 -18 -55 -6 -12 8 -13 14 -3 35 14 31 23 32 53 6z m-25 -91 c24
-27 11 -49 -30 -49 -42 0 -52 12 -36 49 13 32 37 32 66 0z"/>
<path d="M3251 551 c-11 -7 -9 -22 9 -75 12 -37 20 -69 17 -72 -5 -5 -138 46
-198 76 -21 11 -39 16 -39 11 0 -27 42 -207 50 -215 7 -7 14 -6 21 1 9 9 7 29
-5 79 -9 36 -15 68 -13 70 1 2 49 -14 105 -36 110 -43 148 -50 138 -25 -3 8
-17 53 -32 100 -28 91 -33 98 -53 86z"/>
<path d="M1811 429 c-18 -55 -29 -103 -26 -109 18 -28 35 -4 64 89 17 55 31
101 31 104 0 3 -8 7 -18 9 -16 4 -24 -10 -51 -93z"/>
<path d="M1959 380 c-17 -70 -22 -103 -15 -109 12 -9 97 -31 120 -31 9 0 16 6
16 14 0 10 -16 17 -45 22 -25 3 -47 9 -49 13 -2 3 5 40 15 81 23 95 23 110 1
110 -13 0 -23 -21 -43 -100z"/>
<path d="M2776 344 c-53 -101 -62 -134 -37 -134 6 0 18 15 27 33 9 17 18 34
20 36 1 2 33 9 70 16 l66 12 33 -28 c38 -33 50 -36 59 -12 4 11 0 20 -11 27
-10 5 -52 43 -94 83 l-77 74 -56 -107z m94 21 c28 -30 24 -35 -30 -42 l-41 -6
17 37 c10 20 21 36 24 36 4 0 17 -11 30 -25z"/>
<path d="M2201 355 c-41 -47 -77 -85 -82 -85 -15 0 -10 -30 5 -36 9 -3 27 7
43 25 27 29 30 30 96 24 66 -6 69 -7 90 -44 22 -39 44 -50 53 -26 4 11 -100
195 -124 219 -5 5 -41 -30 -81 -77z m92 -10 l17 -35 -38 0 c-21 0 -41 3 -45 6
-6 7 32 64 43 64 3 0 14 -16 23 -35z"/>
<path d="M2490 309 c0 -100 2 -110 18 -107 14 3 17 17 20 96 3 89 3 92 27 92
58 0 71 -26 30 -58 -31 -24 -27 -34 37 -92 47 -42 51 -44 64 -26 12 17 9 22
-25 47 -51 36 -54 43 -31 64 11 10 20 30 20 46 0 33 -37 49 -111 49 l-49 0 0
-111z"/>
</g>
</svg>
