<svg width="196" height="183" viewBox="0 0 196 183" fill="none" xmlns="http://www.w3.org/2000/svg">
<g filter="url(#filter0_d_7_30)">
<path d="M42.1235 8.31722C41.6182 8.34402 41.1033 8.46626 40.5869 8.70073L30.2422 14.9914L34.2617 22.7045L45.9471 18.9855C50.9389 16.7181 47.0044 8.05916 42.1235 8.31757V8.31722ZM84.5874 8.31722C79.7065 8.0588 75.7724 16.7181 80.7639 18.9855L92.4492 22.7045L96.4688 14.9914L86.124 8.70073C85.6072 8.46626 85.0923 8.34402 84.5874 8.31757V8.31722ZM25.0646 18.3976L10.9102 25.0052V26.9936C10.9102 42.1483 17.1864 62.3648 26.6131 79.2358C31.3275 87.671 36.8315 95.2458 42.9477 100.861C48.1149 105.606 53.8234 109.051 59.9438 110.006C60.4212 133.237 66.5512 149.549 76.0323 160.061C85.9104 171.013 99.3923 175.371 112.57 174.602C133.132 173.403 153.4 160.228 161.318 141.368C158.896 141.365 156.483 141.092 154.13 140.557C146.667 156.172 129.268 167.182 112.141 168.182C100.819 168.843 89.8002 165.338 81.3036 155.917C73.162 146.89 67.3118 132.149 66.836 109.994C72.9304 109.025 78.6151 105.587 83.764 100.862C89.8794 95.2465 95.3835 87.6717 100.097 79.2365C109.524 62.3655 115.8 42.149 115.8 26.9943V25.0052L101.646 18.3972L98.5643 24.1517L108.809 28.9355C108.295 42.2959 102.528 60.9783 93.9881 76.2592C89.515 84.2647 84.3003 91.3442 78.9321 96.273C73.5635 101.202 68.1885 103.839 63.3555 103.839C58.5225 103.839 53.1474 101.202 47.7788 96.273C42.4106 91.3442 37.196 84.2647 32.7228 76.2585C24.183 60.9776 18.4156 42.2962 17.9011 28.9351L28.1463 24.1517L25.0646 18.3972V18.3976ZM161.355 90.6143C148.207 90.6143 137.621 100.498 137.621 112.774C137.621 125.052 148.207 134.935 161.355 134.935C174.504 134.935 185.09 125.052 185.09 112.774C185.09 100.498 174.504 90.6143 161.355 90.6143ZM161.355 101.337C168.08 101.337 173.605 106.496 173.605 112.774C173.605 119.053 168.08 124.212 161.355 124.212C154.631 124.212 149.105 119.053 149.105 112.774C149.105 106.496 154.631 101.337 161.355 101.337ZM161.355 107.771C158.354 107.771 155.996 109.973 155.996 112.774C155.996 115.577 158.354 117.778 161.355 117.778C164.357 117.778 166.715 115.577 166.715 112.774C166.715 109.973 164.357 107.771 161.355 107.771Z" fill="white"/>
<path d="M127.133 121.028C126.66 119.809 125.763 118.751 124.566 118.001C123.37 117.252 121.935 116.851 120.464 116.852H114.815V102.223L112.441 102.519C107.056 103.193 102.861 105.581 99.9747 109.618C97.8934 112.528 96.9259 115.738 96.4769 118.139C93.3771 120.226 90.6804 123.1 88.4517 126.693C86.5735 129.721 85.0187 133.27 83.8304 137.241C81.8224 143.952 81.5506 149.518 81.5401 149.752L81.5391 156.193H85.698V149.865C85.75 148.928 87.0598 128.439 99.611 120.637L100.347 120.179L100.468 119.397C101.093 115.344 103.256 108.65 110.656 106.593L110.656 120.493H120.464C121.066 120.491 121.653 120.655 122.142 120.96C122.632 121.266 123 121.698 123.194 122.196C124.852 126.479 127.702 131.84 132.142 134.359L130.807 138.741C130.342 140.304 129.285 141.683 127.808 142.652C126.331 143.62 124.522 144.121 122.677 144.073C118.951 143.975 115.072 144.401 111.149 145.337L109.616 145.703V156.193H113.776V148.511C116.65 147.917 119.6 147.648 122.552 147.712C125.333 147.779 128.058 147.022 130.286 145.564C132.513 144.106 134.113 142.032 134.826 139.679L137.047 132.39L135.393 131.769C132.299 130.609 129.366 126.794 127.133 121.028Z" fill="white"/>
<path d="M59.8951 40.3148V40.3762C59.8961 41.5772 59.6492 42.7694 59.1651 43.9002L59.1936 43.8269C58.723 44.9288 57.9236 45.9121 56.871 46.6834L56.8615 46.6893C55.8638 47.4401 54.5366 47.8976 53.0815 47.8976H52.9677H52.9725C51.0526 47.8884 49.2141 47.2488 47.8534 46.1168C46.3668 44.9763 45.2103 43.568 44.4715 41.9985L44.4407 41.9233C43.7245 40.44 43.3475 38.8576 43.3292 37.2582V37.1889C43.3292 35.9528 43.5875 34.7663 44.0591 33.6649L44.0307 33.7382C44.5012 32.6362 45.3006 31.653 46.3532 30.8817L46.3627 30.8758C47.4337 30.0704 48.8328 29.638 50.2731 29.6674H50.266C52.1864 29.6743 54.0259 30.3142 55.3851 31.4483C56.8567 32.5887 58.0035 33.9906 58.7409 35.5507L58.7717 35.626C59.4566 37.0126 59.8619 38.6231 59.8832 40.3088V40.3148H59.8951ZM47.2277 55.2666L47.2301 55.433C47.2329 56.9226 46.6822 58.3762 45.6541 59.5929L45.673 59.5691C45.2042 60.1336 44.5789 60.595 43.8505 60.9137C43.1221 61.2324 42.3123 61.3991 41.4901 61.3995L41.2555 61.3955H41.2673C39.3248 61.3776 37.4577 60.7644 36.0202 59.6721L36.0274 59.6781C34.4982 58.5833 33.2614 57.2322 32.3971 55.7122C31.5328 54.1923 31.0602 52.5375 31.0102 50.8551V50.8393L31.0078 50.6768C31.0078 49.1218 31.5908 47.6797 32.5838 46.4971L32.5649 46.5209C33.0527 45.9249 33.7144 45.4429 34.4875 45.1205C35.2606 44.7981 36.1194 44.646 36.9824 44.6787H36.9706C38.9131 44.6965 40.7802 45.3098 42.2177 46.4021L42.2105 46.3961C43.7421 47.4974 44.98 48.855 45.8442 50.3813C46.7085 51.9076 47.1798 53.5686 47.2277 55.2567V55.2706V55.2666ZM61.8289 54.4307C65.289 54.5885 68.6028 55.6492 71.304 57.4634L71.2708 57.4416C74.5772 59.4044 77.4262 61.8561 79.677 64.6759L79.7528 64.7769C81.7815 67.055 82.9672 69.7801 83.1632 72.6153L83.1656 72.6549L83.1703 72.8273C83.1703 73.6276 82.9357 74.3843 82.5209 75.0479L82.5351 75.0221C82.1372 75.6306 81.5157 76.1161 80.7624 76.4068L80.7387 76.4147C80.0491 76.69 79.2457 76.9059 78.4067 77.0268L78.3498 77.0327C77.475 77.148 76.5906 77.205 75.705 77.2031H75.5272H75.5367C73.0948 77.068 70.6991 76.5814 68.4553 75.7649L68.5928 75.8105C66.4737 75.0382 64.2146 74.5688 61.9095 74.4219L61.8361 74.4179C59.222 74.5804 56.7999 75.0716 54.5485 75.8422L54.7073 75.7947C52.3596 76.5828 49.8743 77.0471 47.3486 77.1694L47.2822 77.1714C42.754 77.174 40.49 75.6692 40.49 72.6569C40.5926 70.5462 41.3189 68.4896 42.604 66.6706L42.5637 66.7301C43.9502 64.5505 45.6921 62.5425 47.7396 60.7636L47.7301 60.7715C49.7314 59.0244 52.02 57.5244 54.5271 56.3165L54.6741 56.2511C56.8153 55.1344 59.2689 54.5054 61.791 54.4267H61.8195L61.8289 54.4307ZM70.6807 47.8996H70.5717C69.1741 47.9009 67.8255 47.4689 66.7869 46.6873L66.7916 46.6913C65.7474 45.9314 64.9514 44.9621 64.4785 43.8744L64.4596 43.8269C63.9894 42.719 63.7513 41.5517 63.7557 40.3762V40.3108V40.3148C63.777 38.6211 64.1823 37.0126 64.9051 35.5388L64.8672 35.626C65.6015 34.0395 66.7571 32.6131 68.2468 31.4542L68.2562 31.4483C69.6157 30.3162 71.4539 29.6771 73.3729 29.6694H73.4843C74.9395 29.6694 76.2666 30.129 77.2691 30.8817L77.2644 30.8778C78.3024 31.6364 79.1035 32.5992 79.5775 33.6946L79.5964 33.7421C80.0491 34.7762 80.3098 35.9706 80.3098 37.2147V37.2543V37.2523C80.2892 38.8854 79.8993 40.5005 79.1603 42.0124L79.1983 41.9252C78.4633 43.5203 77.2988 44.9525 75.795 46.1109L75.7855 46.1188C74.4241 47.248 72.5868 47.8853 70.6688 47.8937H70.6665L70.6807 47.8996ZM86.6778 44.6826L86.8958 44.6787C88.6283 44.6787 90.1569 45.4037 91.0717 46.511L91.0835 46.5249C92.1017 47.7441 92.6454 49.196 92.6406 50.6828L92.6382 50.8531V50.8452C92.5915 52.5265 92.1225 54.1809 91.2614 55.7009C90.4003 57.2208 89.1665 58.5725 87.64 59.6682L87.621 59.682C86.1859 60.7702 84.3234 61.3812 82.3858 61.3995H82.3811C81.5253 61.4316 80.6736 61.2823 79.9054 60.9654C79.1371 60.6485 78.4773 60.1743 77.9872 59.5869L77.9754 59.5731C76.9167 58.3131 76.3715 56.8017 76.4207 55.2626V55.2706C76.4661 53.5833 76.9343 51.9228 77.7953 50.3962C78.6562 48.8696 79.8907 47.511 81.4189 46.408L81.4379 46.3941C82.8714 45.3094 84.7299 44.7 86.6636 44.6807H86.6683L86.6778 44.6826Z" fill="white"/>
</g>
<defs>
<filter id="filter0_d_7_30" x="-4" y="0" width="204" height="191" filterUnits="userSpaceOnUse" color-interpolation-filters="sRGB">
<feFlood flood-opacity="0" result="BackgroundImageFix"/>
<feColorMatrix in="SourceAlpha" type="matrix" values="0 0 0 0 0 0 0 0 0 0 0 0 0 0 0 0 0 0 127 0" result="hardAlpha"/>
<feOffset dy="4"/>
<feGaussianBlur stdDeviation="2"/>
<feComposite in2="hardAlpha" operator="out"/>
<feColorMatrix type="matrix" values="0 0 0 0 0 0 0 0 0 0 0 0 0 0 0 0 0 0 0.25 0"/>
<feBlend mode="normal" in2="BackgroundImageFix" result="effect1_dropShadow_7_30"/>
<feBlend mode="normal" in="SourceGraphic" in2="effect1_dropShadow_7_30" result="shape"/>
</filter>
</defs>
</svg>
